<svg xmlns="http://www.w3.org/2000/svg" viewBox="0 0 100 100" width="100" height="100">
  <rect width="100" height="100" rx="24" fill="#dbe7d6"></rect>
  <g transform="translate(2 2) scale(0.96)">
    <path d="M46.78 34.60 Q47.18 20.59 41.19 7.91 M38.39 42.40 Q29.91 33.40 18.27 29.23 M38.02 52.50 Q27.12 52.17 17.26 56.83 M44.08 59.03 Q37.08 65.62 33.83 74.67 M51.94 59.32 Q51.68 67.80 55.29 75.47 M57.02 54.61 Q62.14 60.06 69.18 62.60 M57.25 48.50 Q63.85 48.71 69.82 45.90 M53.59 44.54 Q57.83 40.56 59.81 35.09 M48.84 44.36 Q49.00 39.23 46.82 34.58 M45.76 47.20 Q42.66 43.90 38.41 42.36 M45.61 50.90 Q41.62 50.77 38.00 52.46 M47.82 53.30 Q45.25 55.70 44.05 59.01 M50.70 53.42 Q50.59 56.52 51.91 59.33" fill="none" stroke="#3a6b4b" stroke-width="0.9" stroke-linecap="round" opacity="0.5"></path>
    <path d="M52.80 50.00 L52.83 50.28 L52.83 50.57 L52.81 50.87 L52.75 51.16 L52.66 51.45 L52.54 51.74 L52.40 52.02 L52.22 52.28 L52.01 52.53 L51.78 52.76 L51.51 52.98 L51.23 53.16 L50.92 53.32 L50.60 53.45 L50.25 53.55 L49.89 53.62 L49.53 53.64 L49.15 53.64 L48.77 53.59 L48.40 53.51 L48.02 53.38 L47.66 53.22 L47.30 53.02 L46.97 52.78 L46.65 52.50 L46.36 52.19 L46.10 51.84 L45.87 51.47 L45.68 51.07 L45.52 50.64 L45.41 50.19 L45.34 49.73 L45.31 49.25 L45.34 48.77 L45.41 48.28 L45.53 47.80 L45.71 47.32 L45.93 46.85 L46.21 46.41 L46.53 45.98 L46.90 45.58 L47.31 45.22 L47.77 44.90 L48.26 44.61 L48.79 44.38 L49.34 44.19 L49.93 44.06 L50.53 43.99 L51.14 43.98 L51.77 44.02 L52.39 44.14 L53.01 44.32 L53.62 44.56 L54.22 44.87 L54.78 45.24 L55.32 45.67 L55.82 46.16 L56.27 46.71 L56.67 47.31 L57.02 47.96 L57.31 48.65 L57.52 49.37 L57.67 50.13 L57.74 50.91 L57.74 51.70 L57.65 52.51 L57.48 53.31 L57.23 54.11 L56.89 54.89 L56.47 55.64 L55.97 56.36 L55.39 57.03 L54.74 57.66 L54.01 58.22 L53.22 58.72 L52.37 59.14 L51.47 59.49 L50.53 59.74 L49.54 59.90 L48.53 59.96 L47.51 59.92 L46.47 59.78 L45.44 59.53 L44.42 59.18 L43.43 58.71 L42.48 58.14 L41.57 57.47 L40.72 56.69 L39.93 55.83 L39.23 54.87 L38.62 53.83 L38.10 52.72 L37.70 51.54 L37.40 50.31 L37.23 49.04 L37.19 47.73 L37.28 46.41 L37.50 45.08 L37.86 43.76 L38.36 42.46 L39.00 41.19 L39.77 39.98 L40.68 38.83 L41.71 37.76 L42.86 36.78 L44.12 35.91 L45.48 35.16 L46.94 34.54 L48.47 34.06 L50.07 33.73 L51.72 33.55 L53.41 33.55 L55.12 33.71 L56.83 34.05 L58.52 34.57 L60.18 35.26 L61.79 36.13 L63.33 37.17 L64.77 38.38 L66.12 39.75 L67.33 41.27 L68.41 42.94 L69.33 44.73 L70.08 46.63 L70.64 48.63 L71.01 50.71 L71.17 52.85 L71.12 55.03 L70.84 57.22 L70.34 59.42 L69.61 61.58 L68.65 63.70 L67.47 65.74 L66.06 67.69 L64.44 69.52 L62.62 71.20 L60.61 72.71 L58.43 74.04 L56.08 75.16 L53.60 76.05 L50.99 76.71 L48.29 77.10 L45.53 77.23 L42.71 77.08 L39.89 76.64 L37.07 75.91 L34.30 74.88 L31.61 73.56 L29.01 71.96 L26.55 70.07 L24.26 67.91 L22.16 65.50 L20.28 62.85 L18.64 59.97 L17.28 56.90 L16.22 53.66 L15.48 50.27 L15.07 46.78 L15.01 43.20 L15.31 39.57 L15.99 35.94 L17.04 32.33 L18.47 28.79 L20.27 25.36 L22.44 22.07 L24.97 18.97 L27.84 16.08 L31.04 13.46 L34.53 11.13 L38.30 9.14" fill="none" stroke="#2f5d3f" stroke-width="2.4" stroke-linecap="round" stroke-linejoin="round"></path>
  </g>
</svg>